<mxfile host="app.diagrams.net" agent="Mozilla/5.0 (Windows NT 10.0; Win64; x64) AppleWebKit/537.36 (KHTML, like Gecko) Chrome/129.0.0.0 Safari/537.36" version="24.7.17">
  <diagram name="Сторінка-1" id="l0CRcwk6PfTtS5brV3jc">
    <mxGraphModel grid="1" page="1" gridSize="10" guides="1" tooltips="1" connect="1" arrows="1" fold="1" pageScale="1" pageWidth="827" pageHeight="1169" math="0" shadow="0">
      <root>
        <mxCell id="0" />
        <mxCell id="1" parent="0" />
        <mxCell id="ojC0VUbfK46GgEEr-cvf-3" value="" style="edgeStyle=orthogonalEdgeStyle;rounded=0;orthogonalLoop=1;jettySize=auto;html=1;" edge="1" parent="1" source="ojC0VUbfK46GgEEr-cvf-1" target="ojC0VUbfK46GgEEr-cvf-2">
          <mxGeometry relative="1" as="geometry" />
        </mxCell>
        <mxCell id="ojC0VUbfK46GgEEr-cvf-1" value="Початок програми" style="ellipse;whiteSpace=wrap;html=1;" vertex="1" parent="1">
          <mxGeometry x="28" y="20" width="130" height="50" as="geometry" />
        </mxCell>
        <mxCell id="ojC0VUbfK46GgEEr-cvf-5" value="" style="edgeStyle=orthogonalEdgeStyle;rounded=0;orthogonalLoop=1;jettySize=auto;html=1;" edge="1" parent="1" source="ojC0VUbfK46GgEEr-cvf-2" target="ojC0VUbfK46GgEEr-cvf-4">
          <mxGeometry relative="1" as="geometry" />
        </mxCell>
        <mxCell id="ojC0VUbfK46GgEEr-cvf-2" value="Створення масиву з можливими значеннями, задання змінної індексу" style="whiteSpace=wrap;html=1;" vertex="1" parent="1">
          <mxGeometry x="25" y="140" width="136" height="85" as="geometry" />
        </mxCell>
        <mxCell id="ojC0VUbfK46GgEEr-cvf-9" value="" style="edgeStyle=orthogonalEdgeStyle;rounded=0;orthogonalLoop=1;jettySize=auto;html=1;" edge="1" parent="1" source="ojC0VUbfK46GgEEr-cvf-4" target="ojC0VUbfK46GgEEr-cvf-8">
          <mxGeometry relative="1" as="geometry" />
        </mxCell>
        <mxCell id="ojC0VUbfK46GgEEr-cvf-4" value="Ввід користувачем поточної погоди" style="shape=parallelogram;perimeter=parallelogramPerimeter;whiteSpace=wrap;html=1;fixedSize=1;" vertex="1" parent="1">
          <mxGeometry x="300" y="151.25" width="146" height="62.5" as="geometry" />
        </mxCell>
        <mxCell id="ojC0VUbfK46GgEEr-cvf-13" value="" style="edgeStyle=orthogonalEdgeStyle;rounded=0;orthogonalLoop=1;jettySize=auto;html=1;" edge="1" parent="1" source="ojC0VUbfK46GgEEr-cvf-8" target="ojC0VUbfK46GgEEr-cvf-12">
          <mxGeometry relative="1" as="geometry" />
        </mxCell>
        <mxCell id="ojC0VUbfK46GgEEr-cvf-18" value="Так" style="edgeLabel;html=1;align=center;verticalAlign=middle;resizable=0;points=[];" connectable="0" vertex="1" parent="ojC0VUbfK46GgEEr-cvf-13">
          <mxGeometry x="-0.2301" relative="1" as="geometry">
            <mxPoint as="offset" />
          </mxGeometry>
        </mxCell>
        <mxCell id="ojC0VUbfK46GgEEr-cvf-20" value="" style="edgeStyle=orthogonalEdgeStyle;rounded=0;orthogonalLoop=1;jettySize=auto;html=1;" edge="1" parent="1" source="ojC0VUbfK46GgEEr-cvf-8" target="ojC0VUbfK46GgEEr-cvf-19">
          <mxGeometry relative="1" as="geometry" />
        </mxCell>
        <mxCell id="ojC0VUbfK46GgEEr-cvf-21" value="Ні" style="edgeLabel;html=1;align=center;verticalAlign=middle;resizable=0;points=[];" connectable="0" vertex="1" parent="ojC0VUbfK46GgEEr-cvf-20">
          <mxGeometry x="-0.0813" y="-2" relative="1" as="geometry">
            <mxPoint as="offset" />
          </mxGeometry>
        </mxCell>
        <mxCell id="ojC0VUbfK46GgEEr-cvf-8" value="Іте у проміжку довжини масиву зі значеннями?" style="rhombus;whiteSpace=wrap;html=1;" vertex="1" parent="1">
          <mxGeometry x="311" y="320" width="124" height="103.75" as="geometry" />
        </mxCell>
        <mxCell id="ojC0VUbfK46GgEEr-cvf-23" value="" style="edgeStyle=orthogonalEdgeStyle;rounded=0;orthogonalLoop=1;jettySize=auto;html=1;" edge="1" parent="1" source="ojC0VUbfK46GgEEr-cvf-12" target="ojC0VUbfK46GgEEr-cvf-22">
          <mxGeometry relative="1" as="geometry" />
        </mxCell>
        <mxCell id="ojC0VUbfK46GgEEr-cvf-25" value="Ні" style="edgeLabel;html=1;align=center;verticalAlign=middle;resizable=0;points=[];" connectable="0" vertex="1" parent="ojC0VUbfK46GgEEr-cvf-23">
          <mxGeometry x="-0.2829" y="1" relative="1" as="geometry">
            <mxPoint as="offset" />
          </mxGeometry>
        </mxCell>
        <mxCell id="ojC0VUbfK46GgEEr-cvf-27" value="" style="edgeStyle=orthogonalEdgeStyle;rounded=0;orthogonalLoop=1;jettySize=auto;html=1;" edge="1" parent="1" source="ojC0VUbfK46GgEEr-cvf-12" target="ojC0VUbfK46GgEEr-cvf-26">
          <mxGeometry relative="1" as="geometry">
            <Array as="points">
              <mxPoint x="373" y="760" />
            </Array>
          </mxGeometry>
        </mxCell>
        <mxCell id="ojC0VUbfK46GgEEr-cvf-28" value="Так" style="edgeLabel;html=1;align=center;verticalAlign=middle;resizable=0;points=[];" connectable="0" vertex="1" parent="ojC0VUbfK46GgEEr-cvf-27">
          <mxGeometry x="-0.1391" y="-1" relative="1" as="geometry">
            <mxPoint x="1" y="-26" as="offset" />
          </mxGeometry>
        </mxCell>
        <mxCell id="ojC0VUbfK46GgEEr-cvf-12" value="Співпадіння за ітим індексом?" style="rhombus;whiteSpace=wrap;html=1;" vertex="1" parent="1">
          <mxGeometry x="321.5" y="489" width="103" height="95.63" as="geometry" />
        </mxCell>
        <mxCell id="ojC0VUbfK46GgEEr-cvf-30" style="edgeStyle=orthogonalEdgeStyle;rounded=0;orthogonalLoop=1;jettySize=auto;html=1;entryX=0;entryY=0.5;entryDx=0;entryDy=0;" edge="1" parent="1" source="ojC0VUbfK46GgEEr-cvf-19" target="ojC0VUbfK46GgEEr-cvf-29">
          <mxGeometry relative="1" as="geometry">
            <Array as="points">
              <mxPoint x="169" y="865" />
            </Array>
          </mxGeometry>
        </mxCell>
        <mxCell id="ojC0VUbfK46GgEEr-cvf-19" value="Повернення індексу -1" style="whiteSpace=wrap;html=1;" vertex="1" parent="1">
          <mxGeometry x="109" y="341.875" width="120" height="60" as="geometry" />
        </mxCell>
        <mxCell id="ojC0VUbfK46GgEEr-cvf-24" style="edgeStyle=orthogonalEdgeStyle;rounded=0;orthogonalLoop=1;jettySize=auto;html=1;entryX=1;entryY=0.5;entryDx=0;entryDy=0;exitX=0.5;exitY=0;exitDx=0;exitDy=0;" edge="1" parent="1" source="ojC0VUbfK46GgEEr-cvf-22" target="ojC0VUbfK46GgEEr-cvf-8">
          <mxGeometry relative="1" as="geometry">
            <Array as="points">
              <mxPoint x="560" y="372" />
            </Array>
          </mxGeometry>
        </mxCell>
        <mxCell id="ojC0VUbfK46GgEEr-cvf-22" value="і + 1" style="whiteSpace=wrap;html=1;" vertex="1" parent="1">
          <mxGeometry x="480" y="506.815" width="120" height="60" as="geometry" />
        </mxCell>
        <mxCell id="ojC0VUbfK46GgEEr-cvf-32" style="edgeStyle=orthogonalEdgeStyle;rounded=0;orthogonalLoop=1;jettySize=auto;html=1;entryX=0.5;entryY=1;entryDx=0;entryDy=0;" edge="1" parent="1" source="ojC0VUbfK46GgEEr-cvf-26" target="ojC0VUbfK46GgEEr-cvf-31">
          <mxGeometry relative="1" as="geometry" />
        </mxCell>
        <mxCell id="ojC0VUbfK46GgEEr-cvf-26" value="Повернення індексу елемента" style="whiteSpace=wrap;html=1;" vertex="1" parent="1">
          <mxGeometry x="480" y="730.0049999999999" width="120" height="60" as="geometry" />
        </mxCell>
        <mxCell id="ojC0VUbfK46GgEEr-cvf-29" value="Кінець програми" style="ellipse;whiteSpace=wrap;html=1;" vertex="1" parent="1">
          <mxGeometry x="472" y="840" width="136" height="50" as="geometry" />
        </mxCell>
        <mxCell id="ojC0VUbfK46GgEEr-cvf-34" value="" style="edgeStyle=orthogonalEdgeStyle;rounded=0;orthogonalLoop=1;jettySize=auto;html=1;exitX=0;exitY=0;exitDx=0;exitDy=0;" edge="1" parent="1" source="ojC0VUbfK46GgEEr-cvf-31" target="ojC0VUbfK46GgEEr-cvf-33">
          <mxGeometry relative="1" as="geometry" />
        </mxCell>
        <mxCell id="ojC0VUbfK46GgEEr-cvf-35" value="Так" style="edgeLabel;html=1;align=center;verticalAlign=middle;resizable=0;points=[];" connectable="0" vertex="1" parent="ojC0VUbfK46GgEEr-cvf-34">
          <mxGeometry x="-0.2647" y="2" relative="1" as="geometry">
            <mxPoint x="-40" as="offset" />
          </mxGeometry>
        </mxCell>
        <mxCell id="ojC0VUbfK46GgEEr-cvf-37" value="" style="edgeStyle=orthogonalEdgeStyle;rounded=0;orthogonalLoop=1;jettySize=auto;html=1;exitX=1;exitY=0;exitDx=0;exitDy=0;" edge="1" parent="1" source="ojC0VUbfK46GgEEr-cvf-31" target="ojC0VUbfK46GgEEr-cvf-36">
          <mxGeometry relative="1" as="geometry" />
        </mxCell>
        <mxCell id="ojC0VUbfK46GgEEr-cvf-38" value="Ні" style="edgeLabel;html=1;align=center;verticalAlign=middle;resizable=0;points=[];" connectable="0" vertex="1" parent="ojC0VUbfK46GgEEr-cvf-37">
          <mxGeometry x="0.0506" y="-1" relative="1" as="geometry">
            <mxPoint x="9" as="offset" />
          </mxGeometry>
        </mxCell>
        <mxCell id="ojC0VUbfK46GgEEr-cvf-31" value="Погода snowy або rainy?" style="rhombus;whiteSpace=wrap;html=1;" vertex="1" parent="1">
          <mxGeometry x="750" y="600" width="100" height="100" as="geometry" />
        </mxCell>
        <mxCell id="ojC0VUbfK46GgEEr-cvf-57" style="edgeStyle=orthogonalEdgeStyle;rounded=0;orthogonalLoop=1;jettySize=auto;html=1;entryX=0.5;entryY=0;entryDx=0;entryDy=0;" edge="1" parent="1" source="ojC0VUbfK46GgEEr-cvf-33" target="ojC0VUbfK46GgEEr-cvf-40">
          <mxGeometry relative="1" as="geometry" />
        </mxCell>
        <mxCell id="ojC0VUbfK46GgEEr-cvf-33" value="Вивід &quot;Вам варто надіти куртку!&quot;" style="shape=parallelogram;perimeter=parallelogramPerimeter;whiteSpace=wrap;html=1;fixedSize=1;" vertex="1" parent="1">
          <mxGeometry x="630" y="480" width="130" height="60" as="geometry" />
        </mxCell>
        <mxCell id="ojC0VUbfK46GgEEr-cvf-58" style="edgeStyle=orthogonalEdgeStyle;rounded=0;orthogonalLoop=1;jettySize=auto;html=1;" edge="1" parent="1" source="ojC0VUbfK46GgEEr-cvf-36">
          <mxGeometry relative="1" as="geometry">
            <mxPoint x="700.0000000000002" y="450" as="targetPoint" />
            <Array as="points">
              <mxPoint x="875" y="450" />
            </Array>
          </mxGeometry>
        </mxCell>
        <mxCell id="ojC0VUbfK46GgEEr-cvf-36" value="Вивід &quot;Куртка Вам сьогодні не знадобиться&quot;" style="shape=parallelogram;perimeter=parallelogramPerimeter;whiteSpace=wrap;html=1;fixedSize=1;" vertex="1" parent="1">
          <mxGeometry x="800" y="480" width="150" height="60" as="geometry" />
        </mxCell>
        <mxCell id="ojC0VUbfK46GgEEr-cvf-50" style="edgeStyle=orthogonalEdgeStyle;rounded=0;orthogonalLoop=1;jettySize=auto;html=1;entryX=1;entryY=0.5;entryDx=0;entryDy=0;" edge="1" parent="1" source="ojC0VUbfK46GgEEr-cvf-40" target="ojC0VUbfK46GgEEr-cvf-42">
          <mxGeometry relative="1" as="geometry" />
        </mxCell>
        <mxCell id="ojC0VUbfK46GgEEr-cvf-60" value="Ні" style="edgeLabel;html=1;align=center;verticalAlign=middle;resizable=0;points=[];" connectable="0" vertex="1" parent="ojC0VUbfK46GgEEr-cvf-50">
          <mxGeometry x="0.1055" y="1" relative="1" as="geometry">
            <mxPoint y="2" as="offset" />
          </mxGeometry>
        </mxCell>
        <mxCell id="ojC0VUbfK46GgEEr-cvf-65" value="" style="edgeStyle=orthogonalEdgeStyle;rounded=0;orthogonalLoop=1;jettySize=auto;html=1;" edge="1" parent="1" source="ojC0VUbfK46GgEEr-cvf-40" target="ojC0VUbfK46GgEEr-cvf-64">
          <mxGeometry relative="1" as="geometry" />
        </mxCell>
        <mxCell id="ojC0VUbfK46GgEEr-cvf-74" value="Так" style="edgeLabel;html=1;align=center;verticalAlign=middle;resizable=0;points=[];" connectable="0" vertex="1" parent="ojC0VUbfK46GgEEr-cvf-65">
          <mxGeometry x="-0.1201" y="1" relative="1" as="geometry">
            <mxPoint as="offset" />
          </mxGeometry>
        </mxCell>
        <mxCell id="ojC0VUbfK46GgEEr-cvf-40" value="Погода sunny?" style="rhombus;whiteSpace=wrap;html=1;direction=west;" vertex="1" parent="1">
          <mxGeometry x="645" y="323.75" width="100" height="100" as="geometry" />
        </mxCell>
        <mxCell id="ojC0VUbfK46GgEEr-cvf-51" style="edgeStyle=orthogonalEdgeStyle;rounded=0;orthogonalLoop=1;jettySize=auto;html=1;entryX=1;entryY=0.5;entryDx=0;entryDy=0;" edge="1" parent="1" source="ojC0VUbfK46GgEEr-cvf-42" target="ojC0VUbfK46GgEEr-cvf-44">
          <mxGeometry relative="1" as="geometry" />
        </mxCell>
        <mxCell id="ojC0VUbfK46GgEEr-cvf-61" value="Ні" style="edgeLabel;html=1;align=center;verticalAlign=middle;resizable=0;points=[];" connectable="0" vertex="1" parent="ojC0VUbfK46GgEEr-cvf-51">
          <mxGeometry x="-0.1714" relative="1" as="geometry">
            <mxPoint as="offset" />
          </mxGeometry>
        </mxCell>
        <mxCell id="ojC0VUbfK46GgEEr-cvf-67" value="" style="edgeStyle=orthogonalEdgeStyle;rounded=0;orthogonalLoop=1;jettySize=auto;html=1;" edge="1" parent="1" source="ojC0VUbfK46GgEEr-cvf-42" target="ojC0VUbfK46GgEEr-cvf-66">
          <mxGeometry relative="1" as="geometry" />
        </mxCell>
        <mxCell id="ojC0VUbfK46GgEEr-cvf-75" value="Так" style="edgeLabel;html=1;align=center;verticalAlign=middle;resizable=0;points=[];" connectable="0" vertex="1" parent="ojC0VUbfK46GgEEr-cvf-67">
          <mxGeometry x="0.0256" y="-1" relative="1" as="geometry">
            <mxPoint x="-2" as="offset" />
          </mxGeometry>
        </mxCell>
        <mxCell id="ojC0VUbfK46GgEEr-cvf-42" value="Погода rainy?" style="rhombus;whiteSpace=wrap;html=1;direction=west;" vertex="1" parent="1">
          <mxGeometry x="780" y="323.75" width="100" height="100" as="geometry" />
        </mxCell>
        <mxCell id="ojC0VUbfK46GgEEr-cvf-56" style="edgeStyle=orthogonalEdgeStyle;rounded=0;orthogonalLoop=1;jettySize=auto;html=1;entryX=1;entryY=0.5;entryDx=0;entryDy=0;" edge="1" parent="1" source="ojC0VUbfK46GgEEr-cvf-44" target="ojC0VUbfK46GgEEr-cvf-46">
          <mxGeometry relative="1" as="geometry" />
        </mxCell>
        <mxCell id="ojC0VUbfK46GgEEr-cvf-62" value="Ні" style="edgeLabel;html=1;align=center;verticalAlign=middle;resizable=0;points=[];" connectable="0" vertex="1" parent="ojC0VUbfK46GgEEr-cvf-56">
          <mxGeometry x="0.3206" y="2" relative="1" as="geometry">
            <mxPoint x="-13" as="offset" />
          </mxGeometry>
        </mxCell>
        <mxCell id="ojC0VUbfK46GgEEr-cvf-69" value="" style="edgeStyle=orthogonalEdgeStyle;rounded=0;orthogonalLoop=1;jettySize=auto;html=1;" edge="1" parent="1" source="ojC0VUbfK46GgEEr-cvf-44" target="ojC0VUbfK46GgEEr-cvf-68">
          <mxGeometry relative="1" as="geometry" />
        </mxCell>
        <mxCell id="ojC0VUbfK46GgEEr-cvf-76" value="Так" style="edgeLabel;html=1;align=center;verticalAlign=middle;resizable=0;points=[];" connectable="0" vertex="1" parent="ojC0VUbfK46GgEEr-cvf-69">
          <mxGeometry x="-0.1504" y="1" relative="1" as="geometry">
            <mxPoint as="offset" />
          </mxGeometry>
        </mxCell>
        <mxCell id="ojC0VUbfK46GgEEr-cvf-44" value="Погода cloudy?" style="rhombus;whiteSpace=wrap;html=1;direction=west;" vertex="1" parent="1">
          <mxGeometry x="930" y="323.75" width="100" height="100" as="geometry" />
        </mxCell>
        <mxCell id="ojC0VUbfK46GgEEr-cvf-53" style="edgeStyle=orthogonalEdgeStyle;rounded=0;orthogonalLoop=1;jettySize=auto;html=1;exitX=0;exitY=0.5;exitDx=0;exitDy=0;entryX=1;entryY=0.5;entryDx=0;entryDy=0;" edge="1" parent="1" source="ojC0VUbfK46GgEEr-cvf-46" target="ojC0VUbfK46GgEEr-cvf-48">
          <mxGeometry relative="1" as="geometry" />
        </mxCell>
        <mxCell id="ojC0VUbfK46GgEEr-cvf-63" value="Ні" style="edgeLabel;html=1;align=center;verticalAlign=middle;resizable=0;points=[];" connectable="0" vertex="1" parent="ojC0VUbfK46GgEEr-cvf-53">
          <mxGeometry x="-0.2286" y="2" relative="1" as="geometry">
            <mxPoint as="offset" />
          </mxGeometry>
        </mxCell>
        <mxCell id="ojC0VUbfK46GgEEr-cvf-71" value="" style="edgeStyle=orthogonalEdgeStyle;rounded=0;orthogonalLoop=1;jettySize=auto;html=1;" edge="1" parent="1" source="ojC0VUbfK46GgEEr-cvf-46" target="ojC0VUbfK46GgEEr-cvf-70">
          <mxGeometry relative="1" as="geometry" />
        </mxCell>
        <mxCell id="ojC0VUbfK46GgEEr-cvf-77" value="Так" style="edgeLabel;html=1;align=center;verticalAlign=middle;resizable=0;points=[];" connectable="0" vertex="1" parent="ojC0VUbfK46GgEEr-cvf-71">
          <mxGeometry x="0.0011" y="-1" relative="1" as="geometry">
            <mxPoint x="-1" y="6" as="offset" />
          </mxGeometry>
        </mxCell>
        <mxCell id="ojC0VUbfK46GgEEr-cvf-46" value="Погода snowy?" style="rhombus;whiteSpace=wrap;html=1;direction=west;" vertex="1" parent="1">
          <mxGeometry x="1080" y="323.75" width="100" height="100" as="geometry" />
        </mxCell>
        <mxCell id="ojC0VUbfK46GgEEr-cvf-73" value="" style="edgeStyle=orthogonalEdgeStyle;rounded=0;orthogonalLoop=1;jettySize=auto;html=1;" edge="1" parent="1" source="ojC0VUbfK46GgEEr-cvf-48" target="ojC0VUbfK46GgEEr-cvf-72">
          <mxGeometry relative="1" as="geometry" />
        </mxCell>
        <mxCell id="ojC0VUbfK46GgEEr-cvf-78" value="Так" style="edgeLabel;html=1;align=center;verticalAlign=middle;resizable=0;points=[];" connectable="0" vertex="1" parent="ojC0VUbfK46GgEEr-cvf-73">
          <mxGeometry x="-0.1686" y="-1" relative="1" as="geometry">
            <mxPoint as="offset" />
          </mxGeometry>
        </mxCell>
        <mxCell id="ojC0VUbfK46GgEEr-cvf-119" style="edgeStyle=orthogonalEdgeStyle;rounded=0;orthogonalLoop=1;jettySize=auto;html=1;entryX=1;entryY=0.5;entryDx=0;entryDy=0;" edge="1" parent="1" source="ojC0VUbfK46GgEEr-cvf-48" target="ojC0VUbfK46GgEEr-cvf-29">
          <mxGeometry relative="1" as="geometry">
            <Array as="points">
              <mxPoint x="1280" y="865" />
            </Array>
          </mxGeometry>
        </mxCell>
        <mxCell id="ojC0VUbfK46GgEEr-cvf-128" value="Ні" style="edgeLabel;html=1;align=center;verticalAlign=middle;resizable=0;points=[];" connectable="0" vertex="1" parent="ojC0VUbfK46GgEEr-cvf-119">
          <mxGeometry x="-0.98" y="1" relative="1" as="geometry">
            <mxPoint as="offset" />
          </mxGeometry>
        </mxCell>
        <mxCell id="ojC0VUbfK46GgEEr-cvf-48" value="Погода windy?" style="rhombus;whiteSpace=wrap;html=1;direction=west;" vertex="1" parent="1">
          <mxGeometry x="1230" y="323.75" width="100" height="100" as="geometry" />
        </mxCell>
        <mxCell id="ojC0VUbfK46GgEEr-cvf-84" style="edgeStyle=orthogonalEdgeStyle;rounded=0;orthogonalLoop=1;jettySize=auto;html=1;entryX=0;entryY=0.5;entryDx=0;entryDy=0;" edge="1" parent="1" source="ojC0VUbfK46GgEEr-cvf-64" target="ojC0VUbfK46GgEEr-cvf-83">
          <mxGeometry relative="1" as="geometry">
            <Array as="points">
              <mxPoint x="695" y="170" />
            </Array>
          </mxGeometry>
        </mxCell>
        <mxCell id="ojC0VUbfK46GgEEr-cvf-64" value="Вивід &quot;Чудовий&amp;nbsp;&lt;div&gt;день для пікніка&quot;&lt;/div&gt;" style="shape=parallelogram;perimeter=parallelogramPerimeter;whiteSpace=wrap;html=1;fixedSize=1;" vertex="1" parent="1">
          <mxGeometry x="627.5" y="223.75" width="135" height="60" as="geometry" />
        </mxCell>
        <mxCell id="ojC0VUbfK46GgEEr-cvf-85" style="edgeStyle=orthogonalEdgeStyle;rounded=0;orthogonalLoop=1;jettySize=auto;html=1;" edge="1" parent="1" source="ojC0VUbfK46GgEEr-cvf-66">
          <mxGeometry relative="1" as="geometry">
            <mxPoint x="829.9999999999998" y="170" as="targetPoint" />
          </mxGeometry>
        </mxCell>
        <mxCell id="ojC0VUbfK46GgEEr-cvf-66" value="&lt;br&gt;&lt;span style=&quot;color: rgb(0, 0, 0); font-family: Helvetica; font-size: 12px; font-style: normal; font-variant-ligatures: normal; font-variant-caps: normal; font-weight: 400; letter-spacing: normal; orphans: 2; text-align: center; text-indent: 0px; text-transform: none; widows: 2; word-spacing: 0px; -webkit-text-stroke-width: 0px; white-space: normal; background-color: rgb(251, 251, 251); text-decoration-thickness: initial; text-decoration-style: initial; text-decoration-color: initial; display: inline !important; float: none;&quot;&gt;Вивід &quot;Ідеальна&amp;nbsp;&lt;/span&gt;&lt;div&gt;&lt;span style=&quot;color: rgb(0, 0, 0); font-family: Helvetica; font-size: 12px; font-style: normal; font-variant-ligatures: normal; font-variant-caps: normal; font-weight: 400; letter-spacing: normal; orphans: 2; text-align: center; text-indent: 0px; text-transform: none; widows: 2; word-spacing: 0px; -webkit-text-stroke-width: 0px; white-space: normal; background-color: rgb(251, 251, 251); text-decoration-thickness: initial; text-decoration-style: initial; text-decoration-color: initial; display: inline !important; float: none;&quot;&gt;погода, щоб читати книгу всередині&quot;&lt;/span&gt;&lt;div&gt;&lt;br&gt;&lt;/div&gt;&lt;/div&gt;" style="shape=parallelogram;perimeter=parallelogramPerimeter;whiteSpace=wrap;html=1;fixedSize=1;" vertex="1" parent="1">
          <mxGeometry x="760" y="225" width="140" height="60" as="geometry" />
        </mxCell>
        <mxCell id="ojC0VUbfK46GgEEr-cvf-86" style="edgeStyle=orthogonalEdgeStyle;rounded=0;orthogonalLoop=1;jettySize=auto;html=1;" edge="1" parent="1" source="ojC0VUbfK46GgEEr-cvf-68">
          <mxGeometry relative="1" as="geometry">
            <mxPoint x="979.9999999999998" y="170" as="targetPoint" />
          </mxGeometry>
        </mxCell>
        <mxCell id="ojC0VUbfK46GgEEr-cvf-68" value="&lt;br&gt;&lt;span style=&quot;color: rgb(0, 0, 0); font-family: Helvetica; font-size: 12px; font-style: normal; font-variant-ligatures: normal; font-variant-caps: normal; font-weight: 400; letter-spacing: normal; orphans: 2; text-align: center; text-indent: 0px; text-transform: none; widows: 2; word-spacing: 0px; -webkit-text-stroke-width: 0px; white-space: normal; background-color: rgb(251, 251, 251); text-decoration-thickness: initial; text-decoration-style: initial; text-decoration-color: initial; display: inline !important; float: none;&quot;&gt;Вивід &quot;Може&amp;nbsp;&lt;/span&gt;&lt;div&gt;&lt;span style=&quot;color: rgb(0, 0, 0); font-family: Helvetica; font-size: 12px; font-style: normal; font-variant-ligatures: normal; font-variant-caps: normal; font-weight: 400; letter-spacing: normal; orphans: 2; text-align: center; text-indent: 0px; text-transform: none; widows: 2; word-spacing: 0px; -webkit-text-stroke-width: 0px; white-space: normal; background-color: rgb(251, 251, 251); text-decoration-thickness: initial; text-decoration-style: initial; text-decoration-color: initial; display: inline !important; float: none;&quot;&gt;відвідати музей?&quot;&lt;/span&gt;&lt;div&gt;&lt;br&gt;&lt;/div&gt;&lt;/div&gt;" style="shape=parallelogram;perimeter=parallelogramPerimeter;whiteSpace=wrap;html=1;fixedSize=1;" vertex="1" parent="1">
          <mxGeometry x="915" y="223.75" width="130" height="60" as="geometry" />
        </mxCell>
        <mxCell id="ojC0VUbfK46GgEEr-cvf-87" style="edgeStyle=orthogonalEdgeStyle;rounded=0;orthogonalLoop=1;jettySize=auto;html=1;" edge="1" parent="1" source="ojC0VUbfK46GgEEr-cvf-70">
          <mxGeometry relative="1" as="geometry">
            <mxPoint x="1129.9999999999998" y="170" as="targetPoint" />
          </mxGeometry>
        </mxCell>
        <mxCell id="ojC0VUbfK46GgEEr-cvf-70" value="&lt;br&gt;&lt;span style=&quot;color: rgb(0, 0, 0); font-family: Helvetica; font-size: 12px; font-style: normal; font-variant-ligatures: normal; font-variant-caps: normal; font-weight: 400; letter-spacing: normal; orphans: 2; text-align: center; text-indent: 0px; text-transform: none; widows: 2; word-spacing: 0px; -webkit-text-stroke-width: 0px; white-space: normal; background-color: rgb(251, 251, 251); text-decoration-thickness: initial; text-decoration-style: initial; text-decoration-color: initial; display: inline !important; float: none;&quot;&gt;Вивід &quot;Як для&amp;nbsp;&lt;/span&gt;&lt;div&gt;&lt;span style=&quot;color: rgb(0, 0, 0); font-family: Helvetica; font-size: 12px; font-style: normal; font-variant-ligatures: normal; font-variant-caps: normal; font-weight: 400; letter-spacing: normal; orphans: 2; text-align: center; text-indent: 0px; text-transform: none; widows: 2; word-spacing: 0px; -webkit-text-stroke-width: 0px; white-space: normal; background-color: rgb(251, 251, 251); text-decoration-thickness: initial; text-decoration-style: initial; text-decoration-color: initial; display: inline !important; float: none;&quot;&gt;того, щоб зліпити сніговика?&quot;&lt;/span&gt;&lt;br&gt;&lt;br&gt;&lt;/div&gt;" style="shape=parallelogram;perimeter=parallelogramPerimeter;whiteSpace=wrap;html=1;fixedSize=1;" vertex="1" parent="1">
          <mxGeometry x="1060" y="223.75" width="140" height="60" as="geometry" />
        </mxCell>
        <mxCell id="ojC0VUbfK46GgEEr-cvf-88" style="edgeStyle=orthogonalEdgeStyle;rounded=0;orthogonalLoop=1;jettySize=auto;html=1;" edge="1" parent="1" source="ojC0VUbfK46GgEEr-cvf-72">
          <mxGeometry relative="1" as="geometry">
            <mxPoint x="1279.9999999999998" y="170" as="targetPoint" />
          </mxGeometry>
        </mxCell>
        <mxCell id="ojC0VUbfK46GgEEr-cvf-72" value="&lt;br&gt;&lt;span style=&quot;color: rgb(0, 0, 0); font-family: Helvetica; font-size: 12px; font-style: normal; font-variant-ligatures: normal; font-variant-caps: normal; font-weight: 400; letter-spacing: normal; orphans: 2; text-align: center; text-indent: 0px; text-transform: none; widows: 2; word-spacing: 0px; -webkit-text-stroke-width: 0px; white-space: normal; background-color: rgb(251, 251, 251); text-decoration-thickness: initial; text-decoration-style: initial; text-decoration-color: initial; display: inline !important; float: none;&quot;&gt;Вивід &quot;Запустіть повітряного змія,&amp;nbsp;&lt;/span&gt;&lt;div&gt;&lt;span style=&quot;color: rgb(0, 0, 0); font-family: Helvetica; font-size: 12px; font-style: normal; font-variant-ligatures: normal; font-variant-caps: normal; font-weight: 400; letter-spacing: normal; orphans: 2; text-align: center; text-indent: 0px; text-transform: none; widows: 2; word-spacing: 0px; -webkit-text-stroke-width: 0px; white-space: normal; background-color: rgb(251, 251, 251); text-decoration-thickness: initial; text-decoration-style: initial; text-decoration-color: initial; display: inline !important; float: none;&quot;&gt;якщо він у Вас є!&quot;&lt;/span&gt;&lt;div&gt;&lt;br&gt;&lt;/div&gt;&lt;/div&gt;" style="shape=parallelogram;perimeter=parallelogramPerimeter;whiteSpace=wrap;html=1;fixedSize=1;" vertex="1" parent="1">
          <mxGeometry x="1210" y="223.75" width="140" height="60" as="geometry" />
        </mxCell>
        <mxCell id="ojC0VUbfK46GgEEr-cvf-98" style="edgeStyle=orthogonalEdgeStyle;rounded=0;orthogonalLoop=1;jettySize=auto;html=1;entryX=0.5;entryY=0;entryDx=0;entryDy=0;" edge="1" parent="1" source="ojC0VUbfK46GgEEr-cvf-83" target="ojC0VUbfK46GgEEr-cvf-89">
          <mxGeometry relative="1" as="geometry" />
        </mxCell>
        <mxCell id="ojC0VUbfK46GgEEr-cvf-83" value="Використовуємо індекс елемента" style="rounded=0;whiteSpace=wrap;html=1;" vertex="1" parent="1">
          <mxGeometry x="1534" y="140" width="120" height="60" as="geometry" />
        </mxCell>
        <mxCell id="ojC0VUbfK46GgEEr-cvf-91" value="" style="edgeStyle=orthogonalEdgeStyle;rounded=0;orthogonalLoop=1;jettySize=auto;html=1;" edge="1" parent="1" source="ojC0VUbfK46GgEEr-cvf-89" target="ojC0VUbfK46GgEEr-cvf-90">
          <mxGeometry relative="1" as="geometry" />
        </mxCell>
        <mxCell id="ojC0VUbfK46GgEEr-cvf-114" value="Ні" style="edgeLabel;html=1;align=center;verticalAlign=middle;resizable=0;points=[];" connectable="0" vertex="1" parent="ojC0VUbfK46GgEEr-cvf-91">
          <mxGeometry x="0.229" y="-1" relative="1" as="geometry">
            <mxPoint as="offset" />
          </mxGeometry>
        </mxCell>
        <mxCell id="ojC0VUbfK46GgEEr-cvf-100" value="" style="edgeStyle=orthogonalEdgeStyle;rounded=0;orthogonalLoop=1;jettySize=auto;html=1;" edge="1" parent="1" source="ojC0VUbfK46GgEEr-cvf-89" target="ojC0VUbfK46GgEEr-cvf-99">
          <mxGeometry relative="1" as="geometry" />
        </mxCell>
        <mxCell id="ojC0VUbfK46GgEEr-cvf-109" value="Так" style="edgeLabel;html=1;align=center;verticalAlign=middle;resizable=0;points=[];" connectable="0" vertex="1" parent="ojC0VUbfK46GgEEr-cvf-100">
          <mxGeometry x="-0.1932" y="-3" relative="1" as="geometry">
            <mxPoint as="offset" />
          </mxGeometry>
        </mxCell>
        <mxCell id="ojC0VUbfK46GgEEr-cvf-89" value="Індекс 0?" style="rhombus;whiteSpace=wrap;html=1;" vertex="1" parent="1">
          <mxGeometry x="1554" y="244" width="80" height="80" as="geometry" />
        </mxCell>
        <mxCell id="ojC0VUbfK46GgEEr-cvf-93" value="" style="edgeStyle=orthogonalEdgeStyle;rounded=0;orthogonalLoop=1;jettySize=auto;html=1;" edge="1" parent="1" source="ojC0VUbfK46GgEEr-cvf-90" target="ojC0VUbfK46GgEEr-cvf-92">
          <mxGeometry relative="1" as="geometry" />
        </mxCell>
        <mxCell id="ojC0VUbfK46GgEEr-cvf-115" value="Ні" style="edgeLabel;html=1;align=center;verticalAlign=middle;resizable=0;points=[];" connectable="0" vertex="1" parent="ojC0VUbfK46GgEEr-cvf-93">
          <mxGeometry x="0.1458" y="2" relative="1" as="geometry">
            <mxPoint as="offset" />
          </mxGeometry>
        </mxCell>
        <mxCell id="ojC0VUbfK46GgEEr-cvf-105" style="edgeStyle=orthogonalEdgeStyle;rounded=0;orthogonalLoop=1;jettySize=auto;html=1;entryX=1;entryY=0.5;entryDx=0;entryDy=0;" edge="1" parent="1" source="ojC0VUbfK46GgEEr-cvf-90" target="ojC0VUbfK46GgEEr-cvf-101">
          <mxGeometry relative="1" as="geometry" />
        </mxCell>
        <mxCell id="ojC0VUbfK46GgEEr-cvf-110" value="Так" style="edgeLabel;html=1;align=center;verticalAlign=middle;resizable=0;points=[];" connectable="0" vertex="1" parent="ojC0VUbfK46GgEEr-cvf-105">
          <mxGeometry x="-0.161" y="2" relative="1" as="geometry">
            <mxPoint as="offset" />
          </mxGeometry>
        </mxCell>
        <mxCell id="ojC0VUbfK46GgEEr-cvf-90" value="Індекс 1?" style="rhombus;whiteSpace=wrap;html=1;" vertex="1" parent="1">
          <mxGeometry x="1554" y="350" width="80" height="80" as="geometry" />
        </mxCell>
        <mxCell id="ojC0VUbfK46GgEEr-cvf-95" value="" style="edgeStyle=orthogonalEdgeStyle;rounded=0;orthogonalLoop=1;jettySize=auto;html=1;" edge="1" parent="1" source="ojC0VUbfK46GgEEr-cvf-92" target="ojC0VUbfK46GgEEr-cvf-94">
          <mxGeometry relative="1" as="geometry" />
        </mxCell>
        <mxCell id="ojC0VUbfK46GgEEr-cvf-116" value="Ні" style="edgeLabel;html=1;align=center;verticalAlign=middle;resizable=0;points=[];" connectable="0" vertex="1" parent="ojC0VUbfK46GgEEr-cvf-95">
          <mxGeometry x="0.3021" y="1" relative="1" as="geometry">
            <mxPoint as="offset" />
          </mxGeometry>
        </mxCell>
        <mxCell id="ojC0VUbfK46GgEEr-cvf-106" style="edgeStyle=orthogonalEdgeStyle;rounded=0;orthogonalLoop=1;jettySize=auto;html=1;entryX=1;entryY=0.5;entryDx=0;entryDy=0;" edge="1" parent="1" source="ojC0VUbfK46GgEEr-cvf-92" target="ojC0VUbfK46GgEEr-cvf-102">
          <mxGeometry relative="1" as="geometry" />
        </mxCell>
        <mxCell id="ojC0VUbfK46GgEEr-cvf-111" value="Так" style="edgeLabel;html=1;align=center;verticalAlign=middle;resizable=0;points=[];" connectable="0" vertex="1" parent="ojC0VUbfK46GgEEr-cvf-106">
          <mxGeometry x="-0.2823" y="-3" relative="1" as="geometry">
            <mxPoint as="offset" />
          </mxGeometry>
        </mxCell>
        <mxCell id="ojC0VUbfK46GgEEr-cvf-92" value="Індекс 2?" style="rhombus;whiteSpace=wrap;html=1;" vertex="1" parent="1">
          <mxGeometry x="1554" y="460" width="80" height="80" as="geometry" />
        </mxCell>
        <mxCell id="ojC0VUbfK46GgEEr-cvf-97" value="" style="edgeStyle=orthogonalEdgeStyle;rounded=0;orthogonalLoop=1;jettySize=auto;html=1;" edge="1" parent="1" source="ojC0VUbfK46GgEEr-cvf-94" target="ojC0VUbfK46GgEEr-cvf-96">
          <mxGeometry relative="1" as="geometry" />
        </mxCell>
        <mxCell id="ojC0VUbfK46GgEEr-cvf-117" value="Ні" style="edgeLabel;html=1;align=center;verticalAlign=middle;resizable=0;points=[];" connectable="0" vertex="1" parent="ojC0VUbfK46GgEEr-cvf-97">
          <mxGeometry x="-0.6875" y="1" relative="1" as="geometry">
            <mxPoint as="offset" />
          </mxGeometry>
        </mxCell>
        <mxCell id="ojC0VUbfK46GgEEr-cvf-107" style="edgeStyle=orthogonalEdgeStyle;rounded=0;orthogonalLoop=1;jettySize=auto;html=1;entryX=1;entryY=0.5;entryDx=0;entryDy=0;" edge="1" parent="1" source="ojC0VUbfK46GgEEr-cvf-94" target="ojC0VUbfK46GgEEr-cvf-103">
          <mxGeometry relative="1" as="geometry" />
        </mxCell>
        <mxCell id="ojC0VUbfK46GgEEr-cvf-112" value="Так" style="edgeLabel;html=1;align=center;verticalAlign=middle;resizable=0;points=[];" connectable="0" vertex="1" parent="ojC0VUbfK46GgEEr-cvf-107">
          <mxGeometry x="-0.1932" relative="1" as="geometry">
            <mxPoint as="offset" />
          </mxGeometry>
        </mxCell>
        <mxCell id="ojC0VUbfK46GgEEr-cvf-94" value="Індекс 3?" style="rhombus;whiteSpace=wrap;html=1;" vertex="1" parent="1">
          <mxGeometry x="1554" y="570" width="80" height="80" as="geometry" />
        </mxCell>
        <mxCell id="ojC0VUbfK46GgEEr-cvf-108" style="edgeStyle=orthogonalEdgeStyle;rounded=0;orthogonalLoop=1;jettySize=auto;html=1;entryX=1;entryY=0.5;entryDx=0;entryDy=0;" edge="1" parent="1" source="ojC0VUbfK46GgEEr-cvf-96" target="ojC0VUbfK46GgEEr-cvf-104">
          <mxGeometry relative="1" as="geometry" />
        </mxCell>
        <mxCell id="ojC0VUbfK46GgEEr-cvf-113" value="Так" style="edgeLabel;html=1;align=center;verticalAlign=middle;resizable=0;points=[];" connectable="0" vertex="1" parent="ojC0VUbfK46GgEEr-cvf-108">
          <mxGeometry x="-0.1932" relative="1" as="geometry">
            <mxPoint as="offset" />
          </mxGeometry>
        </mxCell>
        <mxCell id="ojC0VUbfK46GgEEr-cvf-121" style="edgeStyle=orthogonalEdgeStyle;rounded=0;orthogonalLoop=1;jettySize=auto;html=1;exitX=0.5;exitY=1;exitDx=0;exitDy=0;" edge="1" parent="1" source="ojC0VUbfK46GgEEr-cvf-96">
          <mxGeometry relative="1" as="geometry">
            <mxPoint x="1280" y="840" as="targetPoint" />
            <Array as="points">
              <mxPoint x="1594" y="840" />
            </Array>
          </mxGeometry>
        </mxCell>
        <mxCell id="ojC0VUbfK46GgEEr-cvf-122" value="Ні" style="edgeLabel;html=1;align=center;verticalAlign=middle;resizable=0;points=[];" connectable="0" vertex="1" parent="ojC0VUbfK46GgEEr-cvf-121">
          <mxGeometry x="0.1472" y="-2" relative="1" as="geometry">
            <mxPoint as="offset" />
          </mxGeometry>
        </mxCell>
        <mxCell id="ojC0VUbfK46GgEEr-cvf-96" value="Індекс 4?" style="rhombus;whiteSpace=wrap;html=1;" vertex="1" parent="1">
          <mxGeometry x="1554" y="680" width="80" height="80" as="geometry" />
        </mxCell>
        <mxCell id="ojC0VUbfK46GgEEr-cvf-99" value="Вивід &quot;Взуй улюблені&lt;div&gt;&amp;nbsp;кросівки!&quot;&lt;/div&gt;" style="shape=parallelogram;perimeter=parallelogramPerimeter;whiteSpace=wrap;html=1;fixedSize=1;" vertex="1" parent="1">
          <mxGeometry x="1390" y="254" width="120" height="60" as="geometry" />
        </mxCell>
        <mxCell id="ojC0VUbfK46GgEEr-cvf-126" style="edgeStyle=orthogonalEdgeStyle;rounded=0;orthogonalLoop=1;jettySize=auto;html=1;" edge="1" parent="1" source="ojC0VUbfK46GgEEr-cvf-101">
          <mxGeometry relative="1" as="geometry">
            <mxPoint x="1280" y="450" as="targetPoint" />
            <Array as="points">
              <mxPoint x="1450" y="450" />
            </Array>
          </mxGeometry>
        </mxCell>
        <mxCell id="ojC0VUbfK46GgEEr-cvf-101" value="Вивід &quot;Дощові чоботи - гарна&amp;nbsp;&lt;div&gt;ідея&quot;&lt;/div&gt;" style="shape=parallelogram;perimeter=parallelogramPerimeter;whiteSpace=wrap;html=1;fixedSize=1;" vertex="1" parent="1">
          <mxGeometry x="1390" y="360" width="120" height="60" as="geometry" />
        </mxCell>
        <mxCell id="ojC0VUbfK46GgEEr-cvf-125" style="edgeStyle=orthogonalEdgeStyle;rounded=0;orthogonalLoop=1;jettySize=auto;html=1;" edge="1" parent="1" source="ojC0VUbfK46GgEEr-cvf-102">
          <mxGeometry relative="1" as="geometry">
            <mxPoint x="1280" y="500" as="targetPoint" />
          </mxGeometry>
        </mxCell>
        <mxCell id="ojC0VUbfK46GgEEr-cvf-102" value="Вивід &quot;Сьогодні підходить будь-яке&lt;div&gt;взуття&quot;&lt;/div&gt;" style="shape=parallelogram;perimeter=parallelogramPerimeter;whiteSpace=wrap;html=1;fixedSize=1;" vertex="1" parent="1">
          <mxGeometry x="1385" y="470" width="130" height="60" as="geometry" />
        </mxCell>
        <mxCell id="ojC0VUbfK46GgEEr-cvf-124" style="edgeStyle=orthogonalEdgeStyle;rounded=0;orthogonalLoop=1;jettySize=auto;html=1;" edge="1" parent="1" source="ojC0VUbfK46GgEEr-cvf-103">
          <mxGeometry relative="1" as="geometry">
            <mxPoint x="1280" y="610" as="targetPoint" />
          </mxGeometry>
        </mxCell>
        <mxCell id="ojC0VUbfK46GgEEr-cvf-103" value="Вивід &quot;Снігові черевики зігріють&lt;div&gt;Ваші ноги!&quot;&lt;/div&gt;" style="shape=parallelogram;perimeter=parallelogramPerimeter;whiteSpace=wrap;html=1;fixedSize=1;" vertex="1" parent="1">
          <mxGeometry x="1390" y="580" width="120" height="60" as="geometry" />
        </mxCell>
        <mxCell id="ojC0VUbfK46GgEEr-cvf-123" style="edgeStyle=orthogonalEdgeStyle;rounded=0;orthogonalLoop=1;jettySize=auto;html=1;" edge="1" parent="1" source="ojC0VUbfK46GgEEr-cvf-104">
          <mxGeometry relative="1" as="geometry">
            <mxPoint x="1280" y="720" as="targetPoint" />
          </mxGeometry>
        </mxCell>
        <mxCell id="ojC0VUbfK46GgEEr-cvf-104" value="Вивід &quot;Одягніть&amp;nbsp;&lt;div&gt;щось міцніше&quot;&lt;/div&gt;" style="shape=parallelogram;perimeter=parallelogramPerimeter;whiteSpace=wrap;html=1;fixedSize=1;" vertex="1" parent="1">
          <mxGeometry x="1390" y="690" width="120" height="60" as="geometry" />
        </mxCell>
      </root>
    </mxGraphModel>
  </diagram>
</mxfile>
